<svg width="256" height="256" xmlns="http://www.w3.org/2000/svg">
 <g id="Subpixel Logo">
  <title>Subpixel Logo</title>
  <rect fill="#0a4577" stroke="#000000" stroke-width="4" x="20" y="20" width="108" height="108" id="svg_2"/>
  <rect fill="#0e5da0" stroke="#000000" stroke-width="4" x="182" y="74" width="54" height="54" id="svg_7"/>
  <rect fill="#0e5da0" stroke="#000000" stroke-width="4" x="182" y="128" width="54" height="54" id="svg_9"/>
  <rect fill="#1b8ceb" stroke="#000000" stroke-width="4" x="128" y="128" width="54" height="54" id="svg_17"/>
  <rect fill="#0a4577" stroke="#000000" stroke-width="4" x="128" y="20" width="54" height="54" id="svg_32"/>
  <rect fill="#1b8ceb" stroke="#000000" stroke-width="4" x="155" y="182" width="27" height="27" id="svg_5"/>
  <rect fill="#53a8f0" stroke="#000000" stroke-width="4" x="128" y="182" width="27" height="27" id="svg_6"/>
  <rect fill="#0e5da0" stroke="#000000" stroke-width="4" x="128" y="74" width="54" height="54" id="svg_10"/>
  <rect fill="#0a4577" stroke="#000000" stroke-width="4" x="182" y="20" width="54" height="54" id="svg_11"/>
  <rect fill="#1b8ceb" stroke="#000000" stroke-width="4" x="182" y="182" width="54" height="54" id="svg_12"/>
  <rect fill="#53a8f0" stroke="#000000" stroke-width="4" x="128" y="209" width="27" height="27" id="svg_13"/>
  <rect fill="#1b8ceb" stroke="#000000" stroke-width="4" x="155" y="209" width="27" height="27" id="svg_14"/>
  <rect fill="#53a8f0" stroke="#000000" stroke-width="4" x="101" y="127.75" width="27" height="27" id="svg_20"/>
  <rect fill="#9accf6" stroke="#000000" stroke-width="4" x="74" y="128" width="27" height="27" id="svg_21"/>
  <rect fill="#9accf6" stroke="#000000" stroke-width="4" x="74" y="155" width="27" height="27" id="svg_22"/>
  <rect fill="#53a8f0" stroke="#000000" stroke-width="4" x="101" y="154.75" width="27" height="27" id="svg_23"/>
  <rect fill="#d6eafb" stroke="#000000" stroke-width="4" x="47" y="128" width="27" height="27" id="svg_24"/>
  <rect fill="#d6eafb" stroke="#000000" stroke-width="4" x="20" y="128" width="27" height="27" id="svg_25"/>
  <rect fill="#9accf6" stroke="#000000" stroke-width="4" x="101" y="182" width="27" height="27" id="svg_26"/>
  <rect fill="#d6eafb" stroke="#000000" stroke-width="4" x="74" y="182" width="27" height="27" id="svg_27"/>
  <rect fill="#9accf6" stroke="#000000" stroke-width="4" x="101" y="209" width="27" height="27" id="svg_29"/>
  <rect fill="#fcfeff" stroke="#000000" stroke-width="4" x="20" y="209" width="27" height="27" id="svg_3"/>
 </g>

</svg>